<svg width="24" height="24" viewBox="0 0 24 24" fill="none" xmlns="http://www.w3.org/2000/svg">
  <!-- Modern skill orb -->
  <circle cx="12" cy="12" r="7" fill="currentColor" opacity="0.8" stroke="currentColor" stroke-width="1"/>
  <!-- Clean inner design -->
  <circle cx="12" cy="12" r="4" fill="none" stroke="currentColor" stroke-width="1" opacity="0.6"/>
  <!-- Modern skill symbol -->
  <path d="M12 6 L14 10 L18 10 L15 13 L16 18 L12 15 L8 18 L9 13 L6 10 L10 10 Z" 
        fill="currentColor" opacity="0.9"/>
  <!-- Enhancement rings -->
  <circle cx="12" cy="12" r="9" fill="none" stroke="currentColor" stroke-width="1" opacity="0.5"/>
  <circle cx="12" cy="12" r="11" fill="none" stroke="currentColor" stroke-width="0.5" opacity="0.3"/>
  <!-- Sharp enhancement sparks -->
  <path d="M4 4 L6 2 L8 4 L6 6 Z" fill="currentColor" opacity="0.7"/>
  <path d="M16 4 L18 2 L20 4 L18 6 Z" fill="currentColor" opacity="0.7"/>
  <path d="M4 16 L6 18 L8 16 L6 14 Z" fill="currentColor" opacity="0.7"/>
  <path d="M16 16 L18 18 L20 16 L18 14 Z" fill="currentColor" opacity="0.7"/>
</svg>